<svg width="118" height="108" viewBox="0 0 118 108" fill="none" xmlns="http://www.w3.org/2000/svg">
<path d="M8.88628 20.8937C-2.0132 41.2103 -3.14888 64.5508 11.1356 83.4582C24.8217 101.516 47.7815 110.759 70.1339 106.466C81.8915 104.259 93.2065 98.6988 102.103 90.7113C109.625 83.9622 117.096 74.2123 117.722 63.6597C118.921 40.0916 94.9629 21.3681 76.824 10.8535C65.0211 4.03757 51.3803 -0.0510849 37.5949 0.619629C24.3493 1.29163 15.2223 9.75455 8.88628 20.8937C8.0079 22.4644 10.2434 23.9597 11.2459 22.4721C16.5365 13.1516 24.356 4.62345 35.5695 3.49132C47.011 2.42182 58.8522 5.03687 69.1895 9.88333C87.8545 18.6816 109.353 34.771 114.351 55.8291C119.632 78.3365 94.0849 97.1281 75.1738 102.464C54.8289 108.189 33.2035 102.446 18.4878 87.3869C10.9233 79.6292 5.09075 69.7027 3.60038 58.8139C1.99259 46.2279 5.42927 33.509 11.3498 22.4517C12.0204 20.9219 9.66078 19.3435 8.88628 20.8937Z" fill="#FFD586"/>
<path d="M28.8493 2.23356C20.0791 9.76608 14.5312 21.0727 14.4206 32.5992C14.2648 44.9947 21.4861 55.4005 30.3783 63.327C50.8724 81.4421 82.108 92.1742 108.308 81.1032C110.013 80.445 108.757 77.8966 107.073 78.6583C82.7651 88.9268 54.4514 79.3398 34.716 63.4408C25.4896 56.0102 17.2297 45.8089 17.0941 33.5782C16.9541 22.4236 22.2717 11.5924 30.6671 4.34872C32.0422 3.11034 30.2448 1.0987 28.8493 2.23356Z" fill="#FFD586"/>
<path d="M30.1251 4.88549C41.578 20.9096 54.5935 35.5509 69.1511 48.7058C70.454 49.8471 72.5788 48.0311 71.2759 46.8898C56.7183 33.7348 43.5786 19.0105 32.25 3.06946C31.218 1.65977 29.0932 3.47581 30.1251 4.88549Z" fill="#FFD586"/>
<path d="M30.1841 60.1396C43.274 57.0253 59.1796 55.6147 70.1334 47.1147C71.5288 45.9798 69.7314 43.9682 68.3156 44.9995C57.9242 53.0662 42.2262 54.436 29.6557 57.4481C27.9103 57.8992 28.4387 60.5907 30.1841 60.1396Z" fill="#FFD586"/>
<path d="M69.8535 79.211C69.6051 69.153 70.2283 59.1384 71.8269 49.1468C72.125 47.3678 69.386 47.1543 69.0879 48.9333C67.4893 58.9249 66.8661 68.9395 67.1145 78.9975C67.1281 80.7152 69.8671 80.9287 69.8535 79.211Z" fill="#FFD586"/>
<path d="M69.5102 47.2374C83.921 55.7979 97.7651 65.8677 108.046 79.2194C109.078 80.629 111.203 78.813 110.171 77.4033C99.7454 63.865 85.7365 53.5051 71.0975 44.882C69.5237 44.0091 67.9363 46.3645 69.5102 47.2374Z" fill="#FFD586"/>
<path d="M70.9214 47.2821C76.4965 44.3568 81.9677 41.452 87.5428 38.5267C92.0363 36.1369 96.8189 34.1202 100.425 30.5073C101.696 29.2894 99.8785 27.1742 98.6072 28.3922C94.7302 32.2735 89.2205 34.4332 84.4358 36.9879C79.5471 39.563 74.5546 42.1586 69.6659 44.7337C68.0221 45.7025 69.2573 48.1473 70.9214 47.2821Z" fill="#FFD586"/>
<path d="M71.6553 45.5249C71.4136 33.8527 71.4836 22.1191 71.6574 10.3651C71.7477 8.62702 68.9048 8.43398 68.9184 10.1516C68.7446 21.9056 68.6746 33.6392 68.9163 45.3114C68.9502 47.1326 71.793 47.3256 71.6553 45.5249Z" fill="#FFD586"/>
<path d="M36.642 34.7837C46.372 40.9325 57.0661 44.8485 68.5798 46.3453C70.3434 46.5358 70.5624 43.8046 68.7988 43.6142C57.8451 42.2222 47.6071 38.4314 38.2497 32.5319C36.6352 31.4519 35.1517 33.7868 36.642 34.7837Z" fill="#FFD586"/>
<path d="M69.6456 49.5762C70.6595 55.2902 73.087 60.511 77.0544 64.7835C78.2737 66.0488 80.2946 64.2532 79.1792 62.9675C75.5843 58.9442 73.3827 54.3241 72.4501 49.0241C72.0008 47.2847 69.3002 47.8163 69.6456 49.5762Z" fill="#FFD586"/>
<path d="M44.8728 81.6554C46.6386 81.3078 46.1102 78.6163 44.3444 78.9639C42.5786 79.3115 43.107 82.003 44.8728 81.6554Z" fill="#FFD586"/>
<path d="M38.171 90.9312C39.9368 90.5836 39.4084 87.8921 37.6426 88.2397C35.8768 88.5873 36.4052 91.2788 38.171 90.9312Z" fill="#FFD586"/>
<path d="M50.9199 99.8188C52.6857 99.4712 52.1573 96.7797 50.3916 97.1273C48.6258 97.4749 49.1542 100.166 50.9199 99.8188Z" fill="#FFD586"/>
<path d="M56.5831 90.7475C58.3489 90.3999 57.8205 87.7084 56.0547 88.056C54.2889 88.4036 54.8173 91.0951 56.5831 90.7475Z" fill="#FFD586"/>
<path d="M77.5874 91.1287C79.3532 90.7811 78.8248 88.0896 77.059 88.4372C75.2932 88.7848 75.8216 91.4763 77.5874 91.1287Z" fill="#FFD586"/>
<path d="M22.2539 70.3023C22.2946 70.5094 22.3149 70.6129 22.3555 70.8199C22.701 72.5798 25.4016 72.0482 25.0562 70.2883C25.0155 70.0813 24.9952 69.9777 24.9545 69.7707C24.6091 68.0109 21.9084 68.5425 22.2539 70.3023Z" fill="#FFD586"/>
<path d="M83.8037 73.8845C85.6395 76.6412 87.2879 79.5423 88.7285 82.4844C89.573 84.0385 92.0275 82.8027 91.183 81.2486C89.6385 78.327 87.9901 75.4258 86.2582 72.6487C85.434 71.1981 82.8553 72.3508 83.8037 73.8845Z" fill="#FFD586"/>
<path d="M17.7873 21.722C19.9753 24.6244 22.4976 27.031 25.3947 29.1487C26.885 30.1456 28.3888 27.9142 26.9821 26.7933C24.2295 24.8622 21.9353 22.5182 19.8918 19.8024C18.756 18.4132 16.7553 20.3123 17.7873 21.722Z" fill="#FFD586"/>
</svg>
