<svg width="48" height="48" viewBox="0 0 48 48" fill="none" xmlns="http://www.w3.org/2000/svg">
<path d="M13.9154 40.9999C13.1289 40.9999 12.4515 40.7158 11.8832 40.1475C11.3149 39.5792 11.0308 38.9018 11.0308 38.1153V10.9039H9V8.63468H17.5538V7.23083H30.4461V8.63468H38.9999V10.9039H36.9691V38.1153C36.9691 38.8996 36.6844 39.5764 36.1151 40.1458C35.5457 40.7152 34.8688 40.9999 34.0845 40.9999H13.9154ZM34.7 10.9039H13.2999V38.1153C13.2999 38.2948 13.3608 38.4422 13.4826 38.5576C13.6045 38.673 13.7487 38.7307 13.9154 38.7307H34.0845C34.2384 38.7307 34.3794 38.6666 34.5076 38.5384C34.6358 38.4102 34.7 38.2692 34.7 38.1153V10.9039ZM19.0615 34.5077H21.3307V15.0769H19.0615V34.5077ZM26.6692 34.5077H28.9384V15.0769H26.6692V34.5077Z" fill="#6C6B6B"/>
</svg>
