<svg width="89" height="31" viewBox="0 0 89 31" fill="none" xmlns="http://www.w3.org/2000/svg">
<path d="M68.4352 2.66211C67.7207 1.05956 65.9741 0.00256348 63.9099 0.00256348C61.1709 0.00256348 58.4319 0.00256348 55.6929 0.00256348C55.5341 0.00256348 55.3753 0.0366603 55.2166 0.0366603V17.2214H58.3922V8.25399C59.067 8.25399 59.6625 8.25399 60.2579 8.25399C60.5755 8.25399 60.6946 8.32218 60.774 8.59496C61.4885 11.3227 62.3221 14.4937 62.9969 17.2214H66.3314C65.6168 14.3914 64.7435 11.1181 64.029 8.28808C65.2596 8.21989 66.3314 7.87892 67.2047 7.19699C68.6734 6.0036 69.1498 4.26466 68.4352 2.66211ZM64.2275 5.42395C62.3221 5.45805 60.377 5.42395 58.4319 5.42395V2.7985C60.3373 2.7985 62.203 2.7644 64.0687 2.7985C64.9023 2.7985 65.4977 3.41224 65.4977 4.09418C65.5374 4.77611 64.942 5.42395 64.2275 5.42395Z" fill="#4A9E29"/>
<path d="M13.2584 2.6637C12.5042 1.06115 10.7575 0.00415039 8.73306 0.00415039C5.95436 0.00415039 3.21535 0.00415039 0.476349 0.00415039C0.317566 0.00415039 0.158783 0.0382472 0 0.0382472V17.223H3.17566V8.25558C3.85049 8.25558 4.44592 8.25558 5.04136 8.25558C5.35892 8.25558 5.47801 8.32377 5.5574 8.59654C6.27193 11.3243 7.10554 14.4953 7.78036 17.223H11.1148C10.4003 14.393 9.52698 11.1197 8.81245 8.28967C10.043 8.22148 11.1148 7.88051 11.9881 7.19857C13.4966 6.00519 13.9729 4.26625 13.2584 2.6637ZM9.01093 5.42554C7.10554 5.45964 5.16045 5.42554 3.21536 5.42554V2.80009C5.12075 2.80009 6.98645 2.76599 8.85215 2.80009C9.68576 2.80009 10.2812 3.41383 10.2812 4.09577C10.3209 4.7777 9.76515 5.42554 9.01093 5.42554Z" fill="#4A9E29"/>
<path d="M47.0395 0.138916C43.2287 0.173013 40.1721 2.79847 40.2118 6.07176C40.2515 9.31095 43.3478 11.9364 47.1189 11.9023C50.89 11.8682 53.9465 9.20866 53.9465 5.93537C53.9068 2.76437 50.7709 0.138916 47.0395 0.138916ZM46.9998 9.14047C45.015 9.10637 43.4272 7.70841 43.4669 6.00356C43.5066 4.26463 45.0944 2.90076 47.1586 2.93485C49.1433 2.96895 50.7312 4.36692 50.6915 6.07176C50.6518 7.81069 49.0243 9.17457 46.9998 9.14047Z" fill="#4A9E29"/>
<path d="M42.0774 14.2551C45.4118 14.2551 48.7066 14.2551 52.0013 14.2551C52.0013 15.1757 52.0013 16.3009 52.0013 17.2556C48.7066 17.2556 45.3721 17.2556 42.0774 17.2556C42.0774 16.335 42.0774 15.2098 42.0774 14.2551Z" fill="#4A9E29"/>
<path d="M23.8574 10.8453L24.7307 10.6749C24.691 10.4703 24.6513 10.2316 24.6116 10.027C23.8177 6.89012 20.126 4.87841 16.474 5.56034C12.7029 6.27638 10.3608 9.41328 11.1944 12.6184C11.9883 15.7894 15.68 17.8011 19.3717 17.1192C22.3489 16.5736 24.4528 14.3914 24.7307 11.9023L21.2374 12.5161C20.8008 13.4367 19.8084 14.1868 18.5778 14.3914C16.8709 14.6642 15.2037 13.88 14.5686 12.5161L21.5153 11.2545L23.8574 10.8453ZM14.3304 10.9135C14.5289 9.61786 15.6403 8.56086 17.2282 8.28809C18.7366 8.04941 20.245 8.62906 20.9993 9.72015L14.3304 10.9135Z" fill="#4A9E29"/>
<path d="M85.2664 17.2215H82.051V5.04891C82.051 4.70794 82.051 4.36697 82.051 4.026C82.051 3.30997 81.3365 2.79852 80.5426 2.79852C79.7486 2.79852 78.9944 3.27587 78.9944 3.88961C78.9944 4.26468 78.9944 4.67384 78.9944 5.04891V17.2215H75.7791V5.04891C75.7791 4.67384 75.7791 4.26468 75.7791 3.88961C75.7791 3.24178 74.9852 2.76442 74.2309 2.79852C73.437 2.79852 72.7622 3.30997 72.7225 4.026C72.7225 4.36697 72.7225 4.70794 72.7225 5.04891V17.2215H69.5071C69.5071 12.4479 69.4674 5.59445 69.5071 4.16239C69.5071 2.38936 70.7377 0.889097 72.6034 0.275354C74.2706 -0.270195 76.0966 0.00257984 77.4463 1.02548C78.7959 0.00257984 80.622 -0.270195 82.2892 0.275354C84.1549 0.889097 85.3854 2.38936 85.3854 4.16239C85.2664 5.62855 85.2664 12.4479 85.2664 17.2215Z" fill="#4A9E29"/>
<path d="M38.0286 2.73031C38.0286 1.80969 38.0286 0.88908 38.0286 0.00256348C34.2972 0.00256348 30.6054 0.00256348 26.874 0.00256348H26.1992V2.7644V4.40105V17.2555H29.4543V8.18579C32.3124 8.18579 35.1705 8.18579 38.0286 8.18579C38.0286 7.26518 38.0286 6.34457 38.0286 5.45805C35.1705 5.45805 32.3124 5.45805 29.4543 5.45805V5.35576H29.4146V2.73031C32.3124 2.73031 35.1705 2.73031 38.0286 2.73031Z" fill="#4A9E29"/>
<path d="M31.4082 22.7981V28.6286C31.4082 29.3502 31.1508 29.9204 30.636 30.3394C30.1301 30.7583 29.4617 30.9678 28.6308 30.9678C27.7998 30.9678 27.1269 30.7583 26.612 30.3394C26.1062 29.9204 25.8533 29.3502 25.8533 28.6286H27.4114C27.4204 28.9855 27.5243 29.2687 27.723 29.4782C27.9307 29.6876 28.2333 29.7924 28.6308 29.7924C29.0282 29.7924 29.3308 29.6876 29.5385 29.4782C29.7463 29.2609 29.8501 28.9777 29.8501 28.6286V22.7981H31.4082Z" fill="#4A9E29"/>
<path d="M40.6817 24.474V30.8863H39.1371V30.1299C38.8933 30.3937 38.5726 30.6031 38.1752 30.7583C37.7868 30.9057 37.3713 30.9794 36.9287 30.9794C36.3416 30.9794 35.8132 30.8747 35.3435 30.6652C34.8829 30.4557 34.517 30.1454 34.2461 29.7342C33.9841 29.323 33.8531 28.8265 33.8531 28.2446V24.474H35.3842V28.0467C35.3842 28.6209 35.5513 29.0631 35.8855 29.3734C36.2197 29.676 36.6758 29.8273 37.2539 29.8273C37.832 29.8273 38.2881 29.676 38.6223 29.3734C38.9655 29.0631 39.1371 28.6209 39.1371 28.0467V24.474H40.6817Z" fill="#4A9E29"/>
<path d="M43.5054 23.6244C43.2254 23.6244 42.9906 23.5429 42.8009 23.38C42.6112 23.2171 42.5164 23.0154 42.5164 22.7748C42.5164 22.5343 42.6112 22.3326 42.8009 22.1697C42.9906 22.0068 43.2254 21.9253 43.5054 21.9253C43.7764 21.9253 44.0067 22.0068 44.1964 22.1697C44.3861 22.3326 44.4809 22.5343 44.4809 22.7748C44.4809 23.0154 44.3861 23.2171 44.1964 23.38C44.0067 23.5429 43.7764 23.6244 43.5054 23.6244ZM44.2642 24.474V30.8863H42.7196V24.474H44.2642Z" fill="#4A9E29"/>
<path d="M45.7772 27.6743C45.7772 27.0149 45.9307 26.4368 46.2378 25.9403C46.554 25.436 46.9875 25.0481 47.5385 24.7765C48.0895 24.505 48.7218 24.3692 49.4353 24.3692C50.3386 24.3692 51.0838 24.5554 51.6709 24.9278C52.267 25.2925 52.669 25.8162 52.8767 26.4989H51.2102C51.0747 26.1808 50.8579 25.9325 50.5599 25.7541C50.2618 25.5757 49.887 25.4864 49.4353 25.4864C48.8031 25.4864 48.2972 25.6804 47.9179 26.0683C47.5475 26.4485 47.3624 26.9838 47.3624 27.6743C47.3624 28.3648 47.5475 28.904 47.9179 29.292C48.2972 29.6799 48.8031 29.8739 49.4353 29.8739C50.3295 29.8739 50.9212 29.5364 51.2102 28.8614H52.8767C52.6599 29.5131 52.2535 30.0329 51.6573 30.4208C51.0612 30.801 50.3205 30.9911 49.4353 30.9911C48.7218 30.9911 48.0895 30.8553 47.5385 30.5838C46.9875 30.3044 46.554 29.9165 46.2378 29.42C45.9307 28.9157 45.7772 28.3338 45.7772 27.6743Z" fill="#4A9E29"/>
<path d="M61.2581 27.523C61.2581 27.7635 61.24 27.9808 61.2039 28.1747H55.4999C55.545 28.6868 55.7663 29.098 56.1637 29.4083C56.5612 29.7187 57.0489 29.8739 57.627 29.8739C58.458 29.8739 59.0451 29.5752 59.3883 28.9777H61.0548C60.829 29.5674 60.418 30.0523 59.8219 30.4325C59.2348 30.8049 58.5032 30.9911 57.627 30.9911C56.9134 30.9911 56.2721 30.8553 55.7031 30.5838C55.1431 30.3044 54.7005 29.9165 54.3753 29.42C54.0592 28.9157 53.9011 28.3338 53.9011 27.6743C53.9011 27.0149 54.0547 26.4368 54.3618 25.9403C54.6779 25.436 55.116 25.0481 55.676 24.7765C56.245 24.505 56.8954 24.3692 57.627 24.3692C58.3315 24.3692 58.9593 24.5011 59.5103 24.7649C60.0613 25.0287 60.4903 25.4011 60.7974 25.8821C61.1045 26.3554 61.2581 26.9024 61.2581 27.523ZM59.6458 27.1041C59.6367 26.6153 59.4335 26.2235 59.0361 25.9287C58.6386 25.6338 58.1464 25.4864 57.5593 25.4864C57.0263 25.4864 56.5702 25.6338 56.1908 25.9287C55.8115 26.2157 55.5857 26.6075 55.5134 27.1041H59.6458Z" fill="#4A9E29"/>
<path d="M65.7827 26.8248C65.7827 26.0334 65.995 25.3235 66.4195 24.6951C66.853 24.0666 67.4356 23.5778 68.1673 23.2287C68.9079 22.8718 69.7163 22.6934 70.5925 22.6934C71.5951 22.6934 72.4848 22.9067 73.2616 23.3335C74.0474 23.7524 74.6165 24.3498 74.9687 25.1257H73.1125C72.8687 24.6989 72.53 24.3809 72.0964 24.1714C71.6628 23.9619 71.1615 23.8572 70.5925 23.8572C69.9692 23.8572 69.4137 23.9774 68.926 24.2179C68.4382 24.4584 68.0544 24.8037 67.7744 25.2537C67.5034 25.7037 67.3679 26.2274 67.3679 26.8248C67.3679 27.4222 67.5034 27.9459 67.7744 28.3959C68.0544 28.8459 68.4382 29.195 68.926 29.4433C69.4137 29.6838 69.9692 29.804 70.5925 29.804C71.1615 29.804 71.6628 29.6993 72.0964 29.4898C72.53 29.2803 72.8687 28.9622 73.1125 28.5355H74.9687C74.6165 29.3114 74.0474 29.9088 73.2616 30.3277C72.4848 30.7467 71.5951 30.9562 70.5925 30.9562C69.7073 30.9562 68.8989 30.7816 68.1673 30.4325C67.4356 30.0756 66.853 29.5829 66.4195 28.9545C65.995 28.326 65.7827 27.6161 65.7827 26.8248Z" fill="#4A9E29"/>
<path d="M81.0716 30.9678C80.1954 30.9678 79.387 30.7932 78.6464 30.4441C77.9147 30.0872 77.3321 29.5945 76.8986 28.9661C76.474 28.3299 76.2618 27.6161 76.2618 26.8248C76.2618 26.0334 76.474 25.3235 76.8986 24.6951C77.3321 24.0666 77.9147 23.5778 78.6464 23.2287C79.387 22.8718 80.1954 22.6934 81.0716 22.6934C81.9567 22.6934 82.7652 22.8718 83.4968 23.2287C84.2374 23.5778 84.82 24.0666 85.2446 24.6951C85.6691 25.3235 85.8814 26.0334 85.8814 26.8248C85.8814 27.6161 85.6691 28.3299 85.2446 28.9661C84.82 29.5945 84.2374 30.0872 83.4968 30.4441C82.7652 30.7932 81.9567 30.9678 81.0716 30.9678ZM81.0716 29.8157C81.6948 29.8157 82.2503 29.6954 82.7381 29.4549C83.2258 29.2066 83.6052 28.8575 83.8761 28.4075C84.1562 27.9497 84.2962 27.4222 84.2962 26.8248C84.2962 26.2274 84.1562 25.7037 83.8761 25.2537C83.6052 24.8037 83.2258 24.4584 82.7381 24.2179C82.2503 23.9774 81.6948 23.8572 81.0716 23.8572C80.4483 23.8572 79.8928 23.9774 79.4051 24.2179C78.9173 24.4584 78.5334 24.8037 78.2534 25.2537C77.9825 25.7037 77.847 26.2274 77.847 26.8248C77.847 27.4222 77.9825 27.9497 78.2534 28.4075C78.5334 28.8575 78.9173 29.2066 79.4051 29.4549C79.8928 29.6954 80.4483 29.8157 81.0716 29.8157Z" fill="#4A9E29"/>
<path d="M88.0245 30.9678C87.7445 30.9678 87.5096 30.8863 87.32 30.7234C87.1303 30.5605 87.0354 30.3588 87.0354 30.1182C87.0354 29.8777 87.1303 29.676 87.32 29.5131C87.5096 29.3502 87.7445 29.2687 88.0245 29.2687C88.2955 29.2687 88.5258 29.3502 88.7155 29.5131C88.9052 29.676 89 29.8777 89 30.1182C89 30.3588 88.9052 30.5605 88.7155 30.7234C88.5258 30.8863 88.2955 30.9678 88.0245 30.9678Z" fill="#4A9E29"/>
</svg>
