<svg width="20" height="20" viewBox="0 0 20 20" fill="none" xmlns="http://www.w3.org/2000/svg">
<g id="Icon/Outline/search">
<path id="Mask" fill-rule="evenodd" clip-rule="evenodd" d="M4.16653 9.16666C4.16653 6.40916 6.40903 4.16666 9.16653 4.16666C11.924 4.16666 14.1665 6.40916 14.1665 9.16666C14.1665 11.9242 11.924 14.1667 9.16653 14.1667C6.40903 14.1667 4.16653 11.9242 4.16653 9.16666ZM17.2558 16.0775L14.4267 13.2475C15.3042 12.1192 15.8333 10.705 15.8333 9.16667C15.8333 5.49083 12.8425 2.5 9.16668 2.5C5.49084 2.5 2.50001 5.49083 2.50001 9.16667C2.50001 12.8425 5.49084 15.8333 9.16668 15.8333C10.705 15.8333 12.1192 15.3042 13.2475 14.4267L16.0775 17.2558C16.24 17.4183 16.4533 17.5 16.6667 17.5C16.88 17.5 17.0933 17.4183 17.2558 17.2558C17.5817 16.93 17.5817 16.4033 17.2558 16.0775Z" fill="#979797"/>
<mask id="mask0_12_1609" style="mask-type:luminance" maskUnits="userSpaceOnUse" x="2" y="2" width="16" height="16">
<path id="Mask_2" fill-rule="evenodd" clip-rule="evenodd" d="M4.16653 9.16666C4.16653 6.40916 6.40903 4.16666 9.16653 4.16666C11.924 4.16666 14.1665 6.40916 14.1665 9.16666C14.1665 11.9242 11.924 14.1667 9.16653 14.1667C6.40903 14.1667 4.16653 11.9242 4.16653 9.16666ZM17.2558 16.0775L14.4267 13.2475C15.3042 12.1192 15.8333 10.705 15.8333 9.16667C15.8333 5.49083 12.8425 2.5 9.16668 2.5C5.49084 2.5 2.50001 5.49083 2.50001 9.16667C2.50001 12.8425 5.49084 15.8333 9.16668 15.8333C10.705 15.8333 12.1192 15.3042 13.2475 14.4267L16.0775 17.2558C16.24 17.4183 16.4533 17.5 16.6667 17.5C16.88 17.5 17.0933 17.4183 17.2558 17.2558C17.5817 16.93 17.5817 16.4033 17.2558 16.0775Z" fill="white"/>
</mask>
<g mask="url(#mask0_12_1609)">
<g id="&#240;&#159;&#142;&#168; Color">
<rect id="Base" width="20" height="20" fill="#979797"/>
</g>
</g>
</g>
</svg>
